<svg xmlns="http://www.w3.org/2000/svg" xmlns:xlink="http://www.w3.org/1999/xlink" width="108" height="61" viewBox="0 0 108 61">
  <defs>
    <filter id="Rectangle_8344" x="0" y="0" width="108" height="61" filterUnits="userSpaceOnUse">
      <feOffset dy="3" input="SourceAlpha"/>
      <feGaussianBlur stdDeviation="3" result="blur"/>
      <feFlood flood-opacity="0.161"/>
      <feComposite operator="in" in2="blur"/>
      <feComposite in="SourceGraphic"/>
    </filter>
    <clipPath id="clip-path">
      <rect id="Rectangle_8349" data-name="Rectangle 8349" width="34.506" height="34.506" transform="translate(0 0)" fill="none"/>
    </clipPath>
  </defs>
  <g id="Group_17237" data-name="Group 17237" transform="translate(-304.5 -408)">
    <g transform="matrix(1, 0, 0, 1, 304.5, 408)" filter="url(#Rectangle_8344)">
      <rect id="Rectangle_8344-2" data-name="Rectangle 8344" width="90" height="43" rx="21.5" transform="translate(9 6)" fill="#fff"/>
    </g>
    <g id="Group_17221" data-name="Group 17221" transform="translate(341.247 418.247)">
      <g id="Group_17220" data-name="Group 17220" transform="translate(0 0)" clip-path="url(#clip-path)">
        <path id="Path_29857" data-name="Path 29857" d="M25.109,13.569h2a.409.409,0,1,0,0-.817h-2Zm0,1.907h2.043a.454.454,0,1,0,0-.908H25.109Zm3.224-1.453a1.478,1.478,0,0,1,.454,1.044,1.434,1.434,0,0,1-1.453,1.453H24.019V11.753h3.269A1.415,1.415,0,0,1,28.7,13.161a1.846,1.846,0,0,1-.363.863M29.1,22.2H27.879l-.363-.817H24.837l-.363.817H23.247l2.361-4.767H26.7Zm-2.951-3.541-.817,1.725H26.97Zm1.635,4.586H29.15l-2.406,3.087v1.68H25.608v-1.68L23.2,23.24h1.362L26.2,25.419Zm6.311,0v1.044H30.921V25.1h3.087v1.044H30.921v.908H34.1V28.1H29.785V23.24Zm3.5,2.951h-.863v1.816H35.6V23.24H38.5a1.487,1.487,0,0,1,.409,2.906l1.408,1.861H38.957Zm.817-1.952H36.777v.908h1.635a.455.455,0,0,0,.454-.454.488.488,0,0,0-.454-.454M23.7,28.007H22.476l-.363-.817H19.434l-.363.817H17.844l2.406-4.767h1.09ZM20.75,24.466l-.817,1.725h1.68Zm-7.219.59h2a.409.409,0,1,0,0-.817h-2Zm0,1.907h2.043a.454.454,0,0,0,0-.908H13.531Zm3.224-1.453a1.478,1.478,0,0,1,.454,1.044,1.434,1.434,0,0,1-1.453,1.453H12.4V23.24h3.269a1.415,1.415,0,0,1,1.408,1.408,1.433,1.433,0,0,1-.318.863m11.578,3.5V30.05H25.154v.817h3.087v1.044H25.154v.908h3.178v1.044H24.019V29.006Zm-.817,7.4a.429.429,0,0,0-.454-.454H25.109v.908h1.952a.429.429,0,0,0,.454-.454m-3.541,3.314V34.954h3.178a1.473,1.473,0,0,1,1.453,1.5,1.441,1.441,0,0,1-.908,1.362l1.453,1.907H27.788l-1.362-1.816H25.109v1.816Z" transform="translate(-8.9 -8.439)" fill="#00364e"/>
        <path id="Path_29858" data-name="Path 29858" d="M34.576,16.164a17.242,17.242,0,0,0-34.416,0,8.817,8.817,0,0,0,.091,1.09,16.912,16.912,0,0,0,3.224,8.082,17.174,17.174,0,0,0,13.893,7.037A15.123,15.123,0,0,1,2.294,18.344a8.749,8.749,0,0,1-.045-1.09,8.749,8.749,0,0,1,.045-1.09A15.123,15.123,0,0,1,17.368,2.135,17.174,17.174,0,0,1,31.261,9.172a16.913,16.913,0,0,1,3.224,8.082,8.926,8.926,0,0,1,.091,1.044c0-.363.045-.726.045-1.09a8.392,8.392,0,0,0-.045-1.044" transform="translate(-0.115 -0.001)" fill="#69bb45"/>
        <path id="Path_29859" data-name="Path 29859" d="M.045,23.777a17.241,17.241,0,0,0,34.415,0,8.817,8.817,0,0,0-.091-1.09,16.913,16.913,0,0,0-3.224-8.082A17.175,17.175,0,0,0,17.253,7.568,15.123,15.123,0,0,1,32.327,21.6a8.748,8.748,0,0,1,.045,1.09,8.748,8.748,0,0,1-.045,1.09A15.089,15.089,0,0,1,17.253,37.806,17.174,17.174,0,0,1,3.36,30.769,16.912,16.912,0,0,1,.136,22.687a8.865,8.865,0,0,1-.091-1.044c0,.363-.045.726-.045,1.09a8.392,8.392,0,0,0,.045,1.044" transform="translate(0 -5.434)" fill="#00b2ef"/>
      </g>
    </g>
  </g>
</svg>
