<svg xmlns="http://www.w3.org/2000/svg" xmlns:xlink="http://www.w3.org/1999/xlink" width="109" height="61" viewBox="0 0 109 61">
  <defs>
    <filter id="Rectangle_8357" x="0" y="0" width="109" height="61" filterUnits="userSpaceOnUse">
      <feOffset dy="3" input="SourceAlpha"/>
      <feGaussianBlur stdDeviation="3" result="blur"/>
      <feFlood flood-opacity="0.161"/>
      <feComposite operator="in" in2="blur"/>
      <feComposite in="SourceGraphic"/>
    </filter>
    <clipPath id="clip-path">
      <rect id="Rectangle_8347" data-name="Rectangle 8347" width="72.846" height="22" fill="none"/>
    </clipPath>
  </defs>
  <g id="Group_17243" data-name="Group 17243" transform="translate(-138.5 -357)">
    <g transform="matrix(1, 0, 0, 1, 138.5, 357)" filter="url(#Rectangle_8357)">
      <rect id="Rectangle_8357-2" data-name="Rectangle 8357" width="91" height="43" rx="21.5" transform="translate(9 6)" fill="#fff"/>
    </g>
    <g id="Group_17242" data-name="Group 17242" transform="translate(155.954 375)">
      <g id="Group_17216" data-name="Group 17216" transform="translate(0 0)" clip-path="url(#clip-path)">
        <path id="Path_29851" data-name="Path 29851" d="M4.741,19.319a10.744,10.744,0,0,1-3.058-3.035A10.713,10.713,0,0,1,0,10.546a10.524,10.524,0,1,1,18.787,6.536,11.9,11.9,0,0,1-2.482,2.238V13.16h1.041v4.21a12.446,12.446,0,0,0,1.529-2.127,9.82,9.82,0,0,0,1.2-4.719,9.549,9.549,0,1,0-19.1.067,10.066,10.066,0,0,0,2.7,6.779V13.16H4.741Zm2.082,1.063a6.144,6.144,0,0,1-1.041-.465V13.16H6.823Zm2.1.554a3.045,3.045,0,0,1-.531-.111c-.111-.022-.155-.022-.51-.111V6.315H8.928Zm2.1.089a2.316,2.316,0,0,1-.421.022,4.536,4.536,0,0,1-.62-.022V6.315h1.041Zm2.1-.332a8.833,8.833,0,0,1-1.041.266V6.315h1.041ZM13.16,5.539,10.524,3.5,7.887,5.539l-.576-.754,3.213-2.5,3.212,2.5Zm2.1,14.378c-.332.155-.532.244-1.063.488V13.16h1.063Z" transform="translate(0 0)" fill="#33337f" fill-rule="evenodd"/>
        <path id="Path_29852" data-name="Path 29852" d="M88.708,6.9V4.082a1.763,1.763,0,0,1,.686-.133c.8,0,1.263.531,1.263,1.418,0,1.041-.443,1.528-1.4,1.528ZM88.2,3.529H86.847v.465l.753.133v6.447l-.753.133v.443h1.285c.222,0,.51,0,.886.022H89.7a3.909,3.909,0,0,0,1.462-.177,1.925,1.925,0,0,0,1.2-1.839A2,2,0,0,0,90.591,7.1,1.927,1.927,0,0,0,91.92,5.323a1.876,1.876,0,0,0-2.1-1.861c-.089,0-.355.022-.687.044Zm.51,3.9H89.2c1.285,0,1.883.509,1.883,1.6a1.56,1.56,0,0,1-1.684,1.683,1.136,1.136,0,0,1-.686-.177Zm6.735-1.817c-1.329,0-2.238,1.2-2.238,2.925,0,1.617.864,2.725,2.127,2.725,1.329,0,2.238-1.174,2.238-2.924,0-1.639-.864-2.725-2.127-2.725m-.045.532c.62,0,.975.731.975,2.06,0,1.662-.355,2.5-1.019,2.5-.62,0-.975-.8-.975-2.215,0-1.485.377-2.348,1.019-2.348m6.913,2.215c-.022-1.838-.62-2.725-1.861-2.725-1.285,0-2.06,1.108-2.06,2.947,0,1.728.753,2.681,2.083,2.681.864,0,1.263-.288,1.817-1.285l-.487-.2c-.332.51-.62.709-1.019.709-.8,0-1.174-.62-1.285-2.127ZM99.5,7.827c.133-1.152.4-1.662.908-1.662s.731.465.776,1.662ZM89.417,22.471v-.466l-.643-.132V15.426l.665-.133v-.465H86.891v.488l.709.111V21.9l-.709.132v.444Zm5.76,0v-.466l-.576-.132V18.439c0-.908-.465-1.44-1.307-1.44a2.165,2.165,0,0,0-1.462.643v-.665h-.31l-1.374.355v.443l.643.088V21.9l-.643.132v.444H92.43v-.466l-.576-.132V18.262a1.574,1.574,0,0,1,1.041-.487c.421,0,.62.288.62.908v3.234l-.576.111v.444Zm5.185-4.741v-.643l-.908.022h-.2a.866.866,0,0,1-.2.022,1.742,1.742,0,0,1-.487-.088,2.751,2.751,0,0,0-.709-.111,1.807,1.807,0,0,0-1.839,1.839,1.62,1.62,0,0,0,.909,1.528c-.709.443-1,.8-1,1.2,0,.31.177.509.62.687-.643.421-.864.709-.864,1.152,0,.686.775,1.13,1.971,1.13,1.6,0,2.636-.753,2.636-1.928,0-.82-.487-1.218-1.529-1.263l-1.329-.066c-.332-.022-.465-.089-.465-.222s.155-.31.421-.488a1.889,1.889,0,0,0,2.459-1.683,1.545,1.545,0,0,0-.4-1.086ZM97.9,17.4c.532,0,.8.465.8,1.44,0,.82-.243,1.241-.753,1.241-.532,0-.753-.421-.753-1.352,0-.908.222-1.329.709-1.329m-.332,4.9c1.706.111,1.95.2,1.95.665,0,.532-.686.908-1.6.908-.731,0-1.174-.287-1.174-.775a1.014,1.014,0,0,1,.4-.82Z" transform="translate(-61.834 -2.465)" fill="#33337f" fill-rule="evenodd"/>
        <path id="Path_29853" data-name="Path 29853" d="M136.955,18.053c.133-1.175.421-1.662.931-1.662s.731.509.753,1.662Zm5.871-8V9.59l-.576-.111V6.134c0-1-.443-1.507-1.308-1.507a2.186,2.186,0,0,0-1.44.643V1.925h-.31l-1.374.288v.376l.62.133V9.48l-.665.133v.443h2.26V9.59L139.5,9.48V5.912a1.473,1.473,0,0,1,1.019-.487c.465,0,.643.288.643,1.086V9.5l-.532.111v.443Zm2.415-5.472h-.332l-1.329.355v.355l.642.111V9.48l-.642.133v.443h2.459V9.59l-.775-.111v-2.9a1.271,1.271,0,0,1,.687-.931l.576.31a.845.845,0,0,0,.421-.665.594.594,0,0,0-.642-.643c-.4,0-.621.2-1.064.952Zm3.3-2.658a.709.709,0,1,0,.709.709.7.7,0,0,0-.709-.709m1.24,8.13V9.59l-.62-.111V4.627H148.9l-1.4.355v.376l.6.133V9.48l-.6.133v.443Zm-9.991,8.508a6.407,6.407,0,0,0-.156-1.374,1.689,1.689,0,0,0-1.727-1.329c-1.285,0-2.061,1.086-2.061,2.924,0,1.706.753,2.7,2.083,2.7.864,0,1.329-.333,1.838-1.285l-.486-.2c-.333.51-.621.709-1.042.709-.8,0-1.174-.621-1.285-2.149Zm2.946,2.814v-.465l-.6-.133V13.224h-.288l-1.4.31v.376l.621.067V20.8l-.643.133v.443Zm5.783,0v-.465l-.6-.133V17.366c0-.908-.465-1.418-1.285-1.418a2.112,2.112,0,0,0-1.462.643V13.224h-.288l-1.4.31v.376l.621.111V20.8l-.642.133v.443h2.238v-.465l-.531-.133V17.234a1.556,1.556,0,0,1,1.019-.509c.465,0,.643.288.643,1.085v3.013l-.532.111v.443Zm4.652-2.814a6.434,6.434,0,0,0-.155-1.374,1.69,1.69,0,0,0-1.728-1.329c-1.285,0-2.061,1.086-2.061,2.924,0,1.706.754,2.7,2.083,2.7.864,0,1.329-.333,1.839-1.285l-.488-.2c-.332.51-.62.709-1.041.709-.8,0-1.174-.621-1.285-2.149Zm-2.836-.509c.133-1.175.421-1.662.93-1.662s.731.509.753,1.662Z" transform="translate(-96.721 -1.371)" fill="#33337f" fill-rule="evenodd"/>
        <path id="Path_29854" data-name="Path 29854" d="M194.658,11.389c.532,0,.8.466.8,1.44,0,.82-.244,1.24-.753,1.24-.531,0-.753-.421-.753-1.351,0-.908.222-1.33.709-1.33m-2.7,5.074V16l-.575-.133V12.431c0-.909-.465-1.44-1.308-1.44a2.167,2.167,0,0,0-1.462.642v-.664h-.31l-1.374.355v.443l.642.089v4.032l-.642.133v.443h2.282V16l-.576-.133V12.254a1.574,1.574,0,0,1,1.041-.488c.421,0,.62.288.62.909v3.235l-.576.111v.443Zm5.162-4.741v-.643l-.908.022h-.2a.845.845,0,0,1-.2.022,1.752,1.752,0,0,1-.487-.089,2.752,2.752,0,0,0-.709-.111,1.807,1.807,0,0,0-1.839,1.839,1.62,1.62,0,0,0,.908,1.528c-.709.443-1,.8-1,1.175,0,.31.177.531.62.708-.62.4-.864.709-.864,1.153,0,.687.775,1.13,1.972,1.13,1.6,0,2.636-.753,2.636-1.927,0-.82-.487-1.218-1.528-1.263l-1.329-.067c-.332-.022-.465-.088-.465-.244,0-.111.156-.288.421-.465a1.8,1.8,0,0,0,.6.088,1.772,1.772,0,0,0,1.861-1.773,1.543,1.543,0,0,0-.4-1.085Zm-3.212,4.542c2.193.133,2.37.177,2.37.687s-.687.908-1.6.908c-.731,0-1.174-.288-1.174-.776a1.012,1.012,0,0,1,.4-.819m7.754-2.592c-.022-1.839-.62-2.725-1.861-2.725-1.285,0-2.06,1.108-2.06,2.947,0,1.728.753,2.681,2.082,2.681.864,0,1.263-.288,1.817-1.285l-.488-.2c-.332.51-.62.709-1.019.709-.8,0-1.175-.62-1.285-2.127Zm-2.814-.531c.133-1.152.4-1.662.908-1.662s.732.465.776,1.662Zm5.384-2.149H203.9l-1.329.354V11.7l.642.111v4.076l-.642.133v.443h2.46V16l-.776-.111v-2.9a1.272,1.272,0,0,1,.687-.931l.576.31a.845.845,0,0,0,.421-.665.594.594,0,0,0-.642-.643c-.4,0-.62.2-1.063.952ZM191.49,19.631a.742.742,0,0,0-.753.731.7.7,0,0,0,.709.709.737.737,0,0,0,.731-.731.709.709,0,0,0-.687-.709m1.2,8.153v-.465l-.62-.133v-4.83H191.8l-1.4.354v.354l.6.133v4.01l-.6.133v.443h10.967v-.465l-.62-.133V23.929c0-1.108-.4-1.573-1.352-1.573a2.066,2.066,0,0,0-1.528.731,1.354,1.354,0,0,0-1.24-.709,2.193,2.193,0,0,0-1.507.643V22.29h-.288l-1.4.354v.377l.643.111v4.077l-.643.133v.443h2.26v-.465l-.509-.133V23.619a1.326,1.326,0,0,1,1-.51c.487,0,.709.31.709,1v3.1l-.621.133v.443h2.237v-.465l-.554-.133V23.641c.443-.4.687-.532,1.041-.532.465,0,.665.288.665,1.019v3.079l-.6.133v.443h-6.381Z" transform="translate(-133.089 -7.778)" fill="#33337f" fill-rule="evenodd"/>
      </g>
    </g>
  </g>
</svg>
