<svg xmlns="http://www.w3.org/2000/svg" xmlns:xlink="http://www.w3.org/1999/xlink" width="108" height="61" viewBox="0 0 108 61">
  <defs>
    <filter id="Rectangle_8343" x="0" y="0" width="108" height="61" filterUnits="userSpaceOnUse">
      <feOffset dy="3" input="SourceAlpha"/>
      <feGaussianBlur stdDeviation="3" result="blur"/>
      <feFlood flood-opacity="0.161"/>
      <feComposite operator="in" in2="blur"/>
      <feComposite in="SourceGraphic"/>
    </filter>
    <clipPath id="clip-path">
      <rect id="Rectangle_8348" data-name="Rectangle 8348" width="43.223" height="36.455" fill="none"/>
    </clipPath>
  </defs>
  <g id="Group_17239" data-name="Group 17239" transform="translate(-193.5 -408)">
    <g transform="matrix(1, 0, 0, 1, 193.5, 408)" filter="url(#Rectangle_8343)">
      <rect id="Rectangle_8343-2" data-name="Rectangle 8343" width="90" height="43" rx="21.5" transform="translate(9 6)" fill="#fff"/>
    </g>
    <g id="Group_17219" data-name="Group 17219" transform="translate(225.889 417.272)">
      <g id="Group_17218" data-name="Group 17218" clip-path="url(#clip-path)">
        <path id="Path_29855" data-name="Path 29855" d="M34.681,0h.113A1.709,1.709,0,0,0,35.81,1.186c.466.042,1.087-.494,1.525-.946.17.55.438,1.13.819,1.285.325.113,1.1-.283,1.567-.692l.014.014c.084.621.268,1.3.762,1.525.353.141,1.031-.155,1.525-.522l.084.042a2.059,2.059,0,0,0,.367,1.44c.283.254,1.228.141,1.822-.071l.028.014A2.107,2.107,0,0,0,44.536,4.8c.24.24.988.2,1.581.056l.056.057A2.118,2.118,0,0,0,46.2,6.537a2.217,2.217,0,0,0,1.567.268l.042.057c-.268.55-.48,1.384-.282,1.666a2.105,2.105,0,0,0,1.553.508l.028.07c-.339.494-.635,1.2-.494,1.5A2.128,2.128,0,0,0,50,11.352l.042.113c-.41.466-.819,1.2-.692,1.539a2.048,2.048,0,0,0,1.214.819c.014.084.028.155.042.24-.48.367-.946.734-.932,1.3.014.41.565.819,1.073,1.087l-.014.127c-.522.268-1.1.72-1.115,1.045a2.181,2.181,0,0,0,.89,1.37l-.014.028c-.565.24-1.313.748-1.341,1.115a2,2,0,0,0,.734,1.285l-.057.141a2.1,2.1,0,0,0-1.384.649c-.155.3.113,1.045.424,1.553l-.057.127a2.067,2.067,0,0,0-1.468.494c-.183.254-.028.946.2,1.482l-.071.113c-.593-.1-1.3-.07-1.511.17a2.182,2.182,0,0,0-.1,1.638l-.1.1c-.593-.169-1.4-.24-1.652,0a2.2,2.2,0,0,0-.254,1.567l-.028.028c-.551-.254-1.341-.438-1.61-.24a2.1,2.1,0,0,0-.494,1.482l-.141.071c-.494-.339-1.172-.635-1.482-.508a2.2,2.2,0,0,0-.763,1.4l-.1.028c-.452-.424-1.13-.847-1.468-.748a2.174,2.174,0,0,0-.932,1.271l-.1.014c-.367-.48-.96-1-1.3-.96a2.234,2.234,0,0,0-1.172,1.1l-.1-.014c-.24-.522-.551-1.087-1.017-1.186a1.684,1.684,0,0,0-1.44.932h-.085a1.719,1.719,0,0,0-.9-1.313c-.325-.127-1.045.282-1.511.678l-.028-.014a2.274,2.274,0,0,0-.72-1.482c-.311-.155-1.045.155-1.553.48l-.085-.043a1.987,1.987,0,0,0-.325-1.454c-.254-.24-1.073-.141-1.652.056a1.968,1.968,0,0,0-.268-1.426c-.226-.212-.946-.155-1.511-.014.184-.565.268-1.3.043-1.539a2.245,2.245,0,0,0-1.624-.325l-.071-.085c.24-.55.424-1.3.226-1.567a2.172,2.172,0,0,0-1.482-.494l-.057-.127c.325-.522.621-1.37.438-1.694a2.081,2.081,0,0,0-1.384-.607l-.014-.042a2.046,2.046,0,0,0,.8-1.257c-.028-.367-.8-.932-1.37-1.186l-.028-.2a2.02,2.02,0,0,0,.946-1.2c.014-.339-.579-.9-1.1-1.228v-.056c.523-.268,1.059-.706,1.144-1.13.057-.339-.452-.946-.932-1.313l.014-.1a2.113,2.113,0,0,0,1.285-.847c.127-.339-.283-1.073-.678-1.539l.028-.113a2.088,2.088,0,0,0,1.412-.664c.17-.3-.127-1.059-.452-1.567l.014-.014a2.23,2.23,0,0,0,1.61-.508c.2-.282,0-1.087-.268-1.638.593.1,1.37.071,1.581-.184a2.251,2.251,0,0,0,.057-1.708l.056-.056c.579.169,1.355.24,1.609,0a2.108,2.108,0,0,0,.254-1.539c.579.24,1.567.4,1.85.141a2.085,2.085,0,0,0,.31-1.482h.014c.48.381,1.285.776,1.624.621a2.337,2.337,0,0,0,.8-1.581c.452.424,1.172.861,1.511.748a2.089,2.089,0,0,0,.9-1.271c.424.466,1.228,1.045,1.6.932A2.026,2.026,0,0,0,34.681,0M32.733,9.4c.946.4,1.906.791,2.852,1.172-5.421,1.511-8.273,3.233-8.881,5.634-.635,2.64.847,4.4,3.135,4.617a11.222,11.222,0,0,0,5.407-.8c.2-1.087.381-2.188.579-3.29l-2.894.381c.113-.734.212-1.468.325-2.217,2.245-.183,4.49-.381,6.735-.579l-.974,6.862a16,16,0,0,1-5.647,1.468c1.892.932,4.179,1.666,5.859,2.669,1.793,1.031,2.556,2.245,2.315,3.643A14.563,14.563,0,0,0,46.47,7.85,34.708,34.708,0,0,1,41.9,9.022s-1.327-.621-2.965-1.3a30.219,30.219,0,0,0,6.255-1.44A14.427,14.427,0,0,0,34.568,1.652c-.3,0-.593.014-.89.028-1.144.861-2.372,1.722-1.384,3.191,1.017.9,3.544,2.061,7.539,3.6,6.029,2.569,6.932,4.32,7.1,5.958.169,2.824-3.05,5.323-7.455,6.918.043-.9.141-2.019.184-2.923,2.739-.734,6.354-2.471,6.339-3.84-.1-.889-3.135-1.835-4.659-2.428A56.452,56.452,0,0,1,31.067,8.189C28.412,6.65,27.749,5.21,28.087,3.177a14.543,14.543,0,0,0-5.859,20.684l3.657-1,3.544,1.61s-4.546.932-5.746,1.355a14.454,14.454,0,0,0,10.885,4.927,15.224,15.224,0,0,0,3.135-.339,1.768,1.768,0,0,0-.226-2.781c-4.038-2.2-7.568-3.149-11.295-5S22,18.3,23.188,15.587c1.37-2.8,4.151-5.21,9.544-6.184m-10,14.726,3.106-.763,2.3.918L23.6,25.4a3.152,3.152,0,0,1-.861-1.271M28.624,3.135a11,11,0,0,1,3.854-1.144c-1.384,1.468-1.214,2.442.085,3.572,2.033,1.638,4.786,1.962,10,4.687,2.386,1.2,4.109,2.669,4.01,4.843-.621,2.5-3.163,4.278-6.692,5.7.056-.65.1-1.285.141-1.934,3.3-1.115,5.478-2.344,6.3-3.8.438-1.017-.946-1.991-4.631-3.2-4.221-1.13-9.5-3.106-11.775-4.97a3.05,3.05,0,0,1-1.285-3.756" transform="translate(-13.003)" fill="#233f84" fill-rule="evenodd"/>
        <path id="Path_29856" data-name="Path 29856" d="M41.938,114.927c.028-.113.07-.254.1-.424s.084-.339.127-.537h1.059a2.588,2.588,0,0,0-.113.381c-.042.155-.085.353-.141.579H41.938Zm-2.146-1.977c-.071.3-.127.48-.141.537a2.29,2.29,0,0,0-.028.4.367.367,0,0,0,.127.24.407.407,0,0,0,.268.084.556.556,0,0,0,.3-.084.6.6,0,0,0,.24-.254,1.231,1.231,0,0,0,.141-.353.524.524,0,0,0-.071-.452.484.484,0,0,0-.409-.169,1.672,1.672,0,0,0-.424.056m-1.553,1.977c.085-.283.17-.579.254-.9l.127-.508c.042-.183.1-.367.141-.551a4.008,4.008,0,0,0,.127-.522c.042-.17.085-.311.113-.452.057-.282.113-.523.141-.706h1.13c-.1.282-.183.579-.268.918.169-.028.3-.042.4-.057a1.717,1.717,0,0,1,.268-.014,1.641,1.641,0,0,1,.692.127.829.829,0,0,1,.409.438,1.313,1.313,0,0,1,.028.748,2.194,2.194,0,0,1-.339.819,1.436,1.436,0,0,1-.579.551,1.454,1.454,0,0,1-.734.183,1.564,1.564,0,0,1-.268-.028.618.618,0,0,1-.226-.085.5.5,0,0,1-.155-.127c-.042-.042-.084-.1-.141-.169l-.085.339H38.239Zm-2.824-1.948c.057-.17.113-.3.127-.367s.07-.169.113-.31a7.028,7.028,0,0,1,1.384-.17,2.413,2.413,0,0,1,.579.071.632.632,0,0,1,.367.226.524.524,0,0,1,.071.452c-.028.1-.085.325-.184.678-.042.169-.1.381-.155.607s-.113.48-.17.763H36.474c.028-.1.07-.24.127-.452s.113-.452.184-.763c-.071.028-.127.057-.17.071a2.332,2.332,0,0,1-.226.07,1.727,1.727,0,0,0-.24.071.519.519,0,0,0-.155.07.382.382,0,0,0-.113.1.213.213,0,0,0-.043.1.159.159,0,0,0,.043.155.307.307,0,0,0,.226.07.352.352,0,0,0,.113-.014.622.622,0,0,0,.2-.042c-.084.127-.183.339-.31.593a2.573,2.573,0,0,1-.452.042,1.218,1.218,0,0,1-.537-.1.513.513,0,0,1-.3-.3.677.677,0,0,1-.042-.41.723.723,0,0,1,.1-.24,1.361,1.361,0,0,1,.183-.24,1.885,1.885,0,0,1,.268-.2,3.574,3.574,0,0,1,.367-.155c.17-.042.367-.085.607-.127a1.863,1.863,0,0,1,.268-.057c.07-.028.141-.042.183-.056s.071-.028.085-.057a.309.309,0,0,0,.071-.056.618.618,0,0,1,.014-.071.127.127,0,0,0-.057-.155.378.378,0,0,0-.24-.057,3.958,3.958,0,0,0-1.214.254m-4.165,1.948c.056-.212.113-.4.155-.565s.1-.325.127-.466c.07-.24.141-.48.2-.72s.127-.48.184-.72.113-.452.141-.65.085-.367.113-.522h1.214c-.043.155-.085.325-.127.48s-.085.325-.127.48c-.057.254-.127.508-.184.762s-.127.508-.184.748c-.042.127-.056.254-.1.381h.621c.48,0,.833,0,1.087-.014l-.212.8H31.25Zm-4.744-1.948c.071-.17.113-.3.141-.367s.056-.169.1-.31a7.151,7.151,0,0,1,1.4-.17,2.293,2.293,0,0,1,.565.071.726.726,0,0,1,.381.226.525.525,0,0,1,.056.452q-.021.148-.169.678c-.042.169-.1.381-.155.607s-.113.48-.17.763H27.565c.028-.1.07-.254.127-.452s.113-.452.2-.763c-.071.028-.141.057-.184.071a1.753,1.753,0,0,1-.212.07,1.727,1.727,0,0,0-.24.071.614.614,0,0,0-.17.07.224.224,0,0,0-.1.1.227.227,0,0,0-.057.1.286.286,0,0,0,.042.155.308.308,0,0,0,.226.07.393.393,0,0,0,.127-.014.552.552,0,0,0,.183-.042c-.07.127-.169.339-.3.593a2.7,2.7,0,0,1-.452.042,1.243,1.243,0,0,1-.551-.1.491.491,0,0,1-.283-.3.677.677,0,0,1-.042-.41.693.693,0,0,1,.085-.24,1.482,1.482,0,0,1,.2-.24,1.222,1.222,0,0,1,.254-.2,2.624,2.624,0,0,1,.381-.155q.233-.063.593-.127a2.369,2.369,0,0,1,.268-.057c.084-.028.141-.042.183-.056a.348.348,0,0,0,.1-.057c.028-.014.042-.042.056-.056s.014-.057.028-.071a.134.134,0,0,0-.071-.155.353.353,0,0,0-.24-.057,3.956,3.956,0,0,0-1.214.254M15.2,114.927l.17-.635c.056-.226.113-.438.169-.65l.127-.508c.028-.17.085-.339.127-.494s.071-.3.1-.438h1.073c-.028.113-.057.24-.085.353a1.857,1.857,0,0,1,.183-.17.917.917,0,0,1,.17-.1.6.6,0,0,1,.2-.084,1.075,1.075,0,0,1,.226-.057c.085,0,.155-.014.254-.014a1.372,1.372,0,0,1,.254.028.554.554,0,0,1,.2.056.439.439,0,0,1,.141.07.723.723,0,0,1,.1.113.466.466,0,0,1,.085.17A1.055,1.055,0,0,1,19,112.3a1.639,1.639,0,0,1,.339-.127,1.738,1.738,0,0,1,.381-.043,1.449,1.449,0,0,1,.452.071.579.579,0,0,1,.311.226.48.48,0,0,1,.056.423q-.021.127-.085.381c-.056.155-.127.452-.226.847s-.169.692-.212.847H18.868c.071-.226.141-.508.24-.847s.141-.579.17-.706a.607.607,0,0,0,.014-.268.174.174,0,0,0-.085-.113.417.417,0,0,0-.141-.028.508.508,0,0,0-.155.028.424.424,0,0,0-.141.1.9.9,0,0,0-.155.226,1.278,1.278,0,0,0-.127.324c-.042.141-.085.325-.141.565l-.17.72H17.033c.043-.156.127-.424.226-.791s.155-.635.184-.762a.484.484,0,0,0,.014-.24.563.563,0,0,0-.071-.127.227.227,0,0,0-.155-.043.325.325,0,0,0-.2.057.566.566,0,0,0-.183.184,1.065,1.065,0,0,0-.141.31c-.042.141-.1.339-.169.621s-.127.536-.184.791H15.2Zm5.224,0,.169-.635c.057-.226.113-.438.17-.65l.127-.508a5.038,5.038,0,0,1,.127-.494c.028-.156.071-.3.1-.438h1.073c-.028.113-.056.24-.084.353a1.857,1.857,0,0,1,.183-.17.917.917,0,0,1,.17-.1.6.6,0,0,1,.2-.084,1.075,1.075,0,0,1,.226-.057c.084,0,.155-.014.254-.014a1.378,1.378,0,0,1,.254.028.556.556,0,0,1,.2.056.442.442,0,0,1,.141.07.723.723,0,0,1,.1.113.466.466,0,0,1,.085.17,1.051,1.051,0,0,1,.31-.268,1.642,1.642,0,0,1,.339-.127,1.739,1.739,0,0,1,.381-.043,1.449,1.449,0,0,1,.452.071.577.577,0,0,1,.31.226.479.479,0,0,1,.057.423q-.021.127-.085.381c-.056.155-.127.452-.226.847s-.169.692-.212.847H24.092c.071-.226.141-.508.24-.847s.141-.579.17-.706a.607.607,0,0,0,.014-.268.174.174,0,0,0-.085-.113.418.418,0,0,0-.141-.028.508.508,0,0,0-.155.028.428.428,0,0,0-.141.1.907.907,0,0,0-.155.226,1.278,1.278,0,0,0-.127.324c-.042.141-.085.325-.141.565l-.17.72H22.257c.042-.156.127-.424.226-.791s.155-.635.184-.762a.484.484,0,0,0,.014-.24.563.563,0,0,0-.071-.127.227.227,0,0,0-.155-.043.325.325,0,0,0-.2.057.564.564,0,0,0-.183.184,1.065,1.065,0,0,0-.141.31c-.042.141-.1.339-.169.621s-.127.536-.184.791H20.421Zm-6.946-2.047a.672.672,0,0,0-.339.085.731.731,0,0,0-.254.254,1.16,1.16,0,0,0-.141.367.513.513,0,0,0,.07.452.41.41,0,0,0,.339.155.658.658,0,0,0,.325-.084.7.7,0,0,0,.268-.268,1.651,1.651,0,0,0,.141-.367,1.146,1.146,0,0,0,0-.311.435.435,0,0,0-.141-.212.5.5,0,0,0-.268-.07m.17-.791a1.87,1.87,0,0,1,.635.1,1.2,1.2,0,0,1,.466.3.774.774,0,0,1,.226.438,1.2,1.2,0,0,1,0,.551,1.828,1.828,0,0,1-.2.551,1.8,1.8,0,0,1-.409.48,1.565,1.565,0,0,1-.621.339,2.567,2.567,0,0,1-.734.113,1.871,1.871,0,0,1-.635-.1,1.2,1.2,0,0,1-.48-.282.986.986,0,0,1-.24-.466,1.447,1.447,0,0,1,0-.551,1.852,1.852,0,0,1,.212-.551,1.949,1.949,0,0,1,.424-.48,1.923,1.923,0,0,1,.635-.325,2.548,2.548,0,0,1,.72-.113M7.6,114.927c.07-.2.127-.41.2-.635s.127-.452.184-.706.127-.48.169-.706.113-.466.155-.678H9.394c-.028.113-.056.24-.1.367a1.336,1.336,0,0,1,.184-.155.787.787,0,0,1,.184-.113,1.679,1.679,0,0,1,.24-.1c.07-.014.155-.042.24-.057s.183-.014.282-.014a1.531,1.531,0,0,1,.367.043,1,1,0,0,1,.3.113.577.577,0,0,1,.17.2.478.478,0,0,1,.07.24,1.737,1.737,0,0,1-.028.268c-.014.07-.057.212-.113.438-.042.155-.085.325-.113.48s-.085.325-.127.494-.071.367-.1.523H9.733c.057-.156.113-.4.2-.72s.127-.55.155-.678a.5.5,0,0,0-.042-.423.361.361,0,0,0-.268-.113.549.549,0,0,0-.325.1.781.781,0,0,0-.268.3,2.512,2.512,0,0,0-.24.635c-.07.3-.141.593-.212.9H7.6ZM5.611,113.3h.9a.18.18,0,0,0,.014-.085.461.461,0,0,0,0-.24.224.224,0,0,0-.113-.141A.472.472,0,0,0,6.2,112.8a.728.728,0,0,0-.155.028.525.525,0,0,0-.155.071.914.914,0,0,0-.127.113l-.084.127c-.014.042-.043.1-.071.17m1.511.861c-.042.1-.141.367-.282.777q-.339.063-.551.084c-.141,0-.3.014-.438.014A3.653,3.653,0,0,1,5.258,115a1.227,1.227,0,0,1-.438-.155.9.9,0,0,1-.282-.283.871.871,0,0,1-.127-.4,1.386,1.386,0,0,1,.028-.48,1.779,1.779,0,0,1,.268-.664,1.805,1.805,0,0,1,.466-.508,1.662,1.662,0,0,1,.551-.268,2.975,2.975,0,0,1,.607-.07,2.5,2.5,0,0,1,.579.07.782.782,0,0,1,.424.24.7.7,0,0,1,.2.41,1.292,1.292,0,0,1,0,.466,3.075,3.075,0,0,1-.1.339c-.635.014-1.285.014-1.92.014-.014.028-.014.043-.028.071a.394.394,0,0,0,.141.423.84.84,0,0,0,.48.141,2.5,2.5,0,0,0,.424-.043,5.6,5.6,0,0,0,.593-.141M2.533,112.8c.254.014.508.014.748.014.409,0,.72,0,.96-.014-.042.127-.085.282-.127.452s-.113.367-.17.593-.113.424-.141.593-.085.311-.113.424c-.226.028-.424.057-.565.071a4.5,4.5,0,0,1-.537.056c-.212.014-.4.014-.55.014a4.411,4.411,0,0,1-.763-.056,2.187,2.187,0,0,1-.65-.2,1,1,0,0,1-.409-.353,1.065,1.065,0,0,1-.2-.523,1.925,1.925,0,0,1,.014-.635,2.076,2.076,0,0,1,.184-.523,1.748,1.748,0,0,1,.325-.494,2.631,2.631,0,0,1,.988-.734A3.5,3.5,0,0,1,3,111.214a6.834,6.834,0,0,1,1.37.141c-.042.254-.085.551-.127.861a2.83,2.83,0,0,0-.325-.085,1.375,1.375,0,0,0-.282-.07l-.325-.043c-.1,0-.2-.014-.268-.014a2.27,2.27,0,0,0-.621.085,1.539,1.539,0,0,0-.551.268,1.5,1.5,0,0,0-.381.41,1.843,1.843,0,0,0-.212.522,1.084,1.084,0,0,0,.014.48.556.556,0,0,0,.3.324,1.13,1.13,0,0,0,.551.113,2.2,2.2,0,0,0,.564-.07c.057-.184.113-.381.155-.579H2.335c.028-.113.057-.212.085-.325a1.18,1.18,0,0,0,.043-.155,2.019,2.019,0,0,0,.07-.282" transform="translate(0 -78.586)" fill="#233f84" fill-rule="evenodd"/>
      </g>
    </g>
  </g>
</svg>
