<svg xmlns="http://www.w3.org/2000/svg" xmlns:xlink="http://www.w3.org/1999/xlink" width="108" height="61" viewBox="0 0 108 61">
  <defs>
    <filter id="Rectangle_8342" x="0" y="0" width="108" height="61" filterUnits="userSpaceOnUse">
      <feOffset dy="3" input="SourceAlpha"/>
      <feGaussianBlur stdDeviation="3" result="blur"/>
      <feFlood flood-opacity="0.161"/>
      <feComposite operator="in" in2="blur"/>
      <feComposite in="SourceGraphic"/>
    </filter>
    <clipPath id="clip-path">
      <rect id="Rectangle_8346" data-name="Rectangle 8346" width="66.19" height="16.945" transform="translate(0 0)" fill="none"/>
    </clipPath>
  </defs>
  <g id="Group_17240" data-name="Group 17240" transform="translate(-75.5 -408)">
    <g transform="matrix(1, 0, 0, 1, 75.5, 408)" filter="url(#Rectangle_8342)">
      <rect id="Rectangle_8342-2" data-name="Rectangle 8342" width="90" height="43" rx="21.5" transform="translate(9 6)" fill="#fff"/>
    </g>
    <g id="Group_17215" data-name="Group 17215" transform="translate(96.405 427.028)">
      <g id="Group_17214" data-name="Group 17214" transform="translate(0 0)" clip-path="url(#clip-path)">
        <path id="Path_29848" data-name="Path 29848" d="M24.03,5.448a12.872,12.872,0,0,0-4.709-.882,5.834,5.834,0,0,0-6.143,6.2c0,3.839,2.2,6.2,6.1,6.2a11.936,11.936,0,0,0,4.757-.954.915.915,0,0,0,.6-.954V6.4a.878.878,0,0,0-.6-.953m-2.51,7.8c0,.357-.191.525-.6.644A5.721,5.721,0,0,1,19.3,14.1c-1.53,0-2.964-.907-2.964-3.339S17.767,7.428,19.3,7.428a5.692,5.692,0,0,1,1.626.215c.407.119.6.286.6.643ZM11.6,14.891a4.421,4.421,0,0,1-.191,1.359c-.119.358-.262.477-.621.477H8.635a.32.32,0,0,1-.358-.334A.307.307,0,0,1,8.3,16.25a2.626,2.626,0,0,0,.143-.882c0-3.507-7.7-1.55-7.7-6.605,0-2.576,2.056-4.292,5.259-4.292a9.989,9.989,0,0,1,4.948,1.263.525.525,0,0,1,.287.477.951.951,0,0,1-.1.4L10.4,8.191a.574.574,0,0,1-.526.334.682.682,0,0,1-.358-.1A7.5,7.5,0,0,0,5.91,7.356c-1.266,0-2.008.462-2.008,1.192,0,2.233,7.7.93,7.7,6.343M38.421,9.049v7.2a.451.451,0,0,1-.478.477H35.792a.451.451,0,0,1-.478-.477v-6.8c0-1.431-1.028-2.027-2.319-2.027a6.838,6.838,0,0,0-1.769.19c-.383.1-.573.263-.573.62V16.25a.452.452,0,0,1-.478.477H28.022a.451.451,0,0,1-.478-.477V6.378a.912.912,0,0,1,.6-.954,14.451,14.451,0,0,1,4.805-.858c3.681,0,5.474,1.574,5.474,4.482m8.223-4.482c-3.586,0-5.929,2.6-5.929,6.2a5.821,5.821,0,0,0,6.1,6.2c3.586,0,5.929-2.6,5.929-6.2a5.82,5.82,0,0,0-6.1-6.2m.167,9.538c-1.769,0-2.94-1.145-2.94-3.339s1.172-3.338,2.773-3.338c1.769,0,2.94,1.144,2.94,3.338S48.413,14.1,46.811,14.1M66.533,5.281V16.25a.451.451,0,0,1-.478.477H63.9a.451.451,0,0,1-.478-.477V5.281A.451.451,0,0,1,63.9,4.8h2.151a.451.451,0,0,1,.478.477m-4.59-4.6a1.662,1.662,0,0,1-.048.31l-.24,1.24c-.048.286-.167.453-.454.453-.178,0-.693-.119-1.171-.119-1.315,0-1.889.667-1.889,1.979V4.8h3.036a.446.446,0,0,1,.478.5V6.95a.439.439,0,0,1-.478.477H58.142V16.25a.451.451,0,0,1-.478.477H55.537a.451.451,0,0,1-.478-.477V5.043c0-3.434,1.936-5.008,4.9-5.008A6.312,6.312,0,0,1,61.465.2c.335.071.478.212.478.477" transform="translate(-0.543 -0.025)" fill="#221f1f" fill-rule="evenodd"/>
        <path id="Path_29849" data-name="Path 29849" d="M231.477,3.34a1.561,1.561,0,0,0,1.65-1.669A1.569,1.569,0,0,0,231.406,0a1.537,1.537,0,0,0-1.649,1.67,1.569,1.569,0,0,0,1.72,1.669" transform="translate(-166.937 0)" fill="#574da0" fill-rule="evenodd"/>
        <path id="Path_29850" data-name="Path 29850" d="M1.625,49.935A1.523,1.523,0,0,0,0,51.58a1.555,1.555,0,0,0,1.7,1.646,1.646,1.646,0,1,0-.072-3.291" transform="translate(0 -36.282)" fill="#574da0" fill-rule="evenodd"/>
      </g>
    </g>
  </g>
</svg>
